<svg width="47" height="36" viewBox="0 0 47 36" fill="none" xmlns="http://www.w3.org/2000/svg">
<path d="M4.8 5.72V2H15.8V5.72H12.2V30H8.4V5.72H4.8Z" fill="white"/>
<path d="M19.785 10V11.76L20.865 10H23.545V13.88H19.785V30H15.985V13.72H15.025L15.425 10H19.785Z" fill="white"/>
<path d="M28.5562 4.68L28.9562 8.4H25.1562V4.68H28.5562ZM28.9562 10V30H25.1562V13.72H24.5562L24.9562 10H28.9562Z" fill="white"/>
<path d="M34.9022 35.32H31.1022V13.72H30.1422L30.5422 10H34.9022V11.56L35.9022 10H36.9822C38.2089 10 39.1822 10.3467 39.9022 11.04C40.6489 11.7333 41.0222 12.6267 41.0222 13.72V26.28C41.0222 27.3467 40.6489 28.24 39.9022 28.96C39.1822 29.6533 38.2089 30 36.9822 30H36.8222C36.1022 30 35.4622 29.8267 34.9022 29.48V35.32ZM37.0222 13.72H34.9022V26.28H37.0222C37.1555 26.28 37.2222 26.2133 37.2222 26.08V13.92C37.2222 13.7867 37.1555 13.72 37.0222 13.72Z" fill="white"/>
</svg>
