<svg width="32" height="32" viewBox="0 0 32 32" fill="none" xmlns="http://www.w3.org/2000/svg">
<path d="M1.64 7.576V4.6H10.44V7.576H7.56V27H4.52V7.576H1.64Z" fill="#1E1E1E"/>
<path d="M13.628 11V12.408L14.492 11H16.636V14.104H13.628V27H10.588V13.976H9.82L10.14 11H13.628Z" fill="#1E1E1E"/>
<path d="M20.645 6.744L20.965 9.72H17.925V6.744H20.645ZM20.965 11V27H17.925V13.976H17.445L17.765 11H20.965Z" fill="#1E1E1E"/>
<path d="M25.7218 31.256H22.6817V13.976H21.9137L22.2337 11H25.7218V12.248L26.5218 11H27.3857C28.3671 11 29.1458 11.2773 29.7218 11.832C30.3191 12.3867 30.6178 13.1013 30.6178 13.976V24.024C30.6178 24.8773 30.3191 25.592 29.7218 26.168C29.1458 26.7227 28.3671 27 27.3857 27H27.2577C26.6817 27 26.1698 26.8613 25.7218 26.584V31.256ZM27.4178 13.976H25.7218V24.024H27.4178C27.5244 24.024 27.5778 23.9707 27.5778 23.864V14.136C27.5778 14.0293 27.5244 13.976 27.4178 13.976Z" fill="#1E1E1E"/>
</svg>
